<mxfile host="app.diagrams.net" modified="2024-03-15T00:48:58.969Z" agent="Mozilla/5.0 (Windows NT 10.0; Win64; x64) AppleWebKit/537.36 (KHTML, like Gecko) Chrome/122.0.0.0 Safari/537.36" etag="y_ivYD5rDIQyoDtjThiv" version="24.0.6" type="github">
  <diagram name="PÃ¡gina-1" id="y1xjPv5aqaeZIKSTUVZZ">
    <mxGraphModel dx="2261" dy="1907" grid="1" gridSize="10" guides="1" tooltips="1" connect="1" arrows="1" fold="1" page="1" pageScale="1" pageWidth="827" pageHeight="1169" math="0" shadow="0">
      <root>
        <mxCell id="0" />
        <mxCell id="1" parent="0" />
        <mxCell id="SIUPlMjyMP-g4GByRox6-25" style="rounded=0;orthogonalLoop=1;jettySize=auto;html=1;exitX=1;exitY=1;exitDx=0;exitDy=0;exitPerimeter=0;" edge="1" parent="1" source="SIUPlMjyMP-g4GByRox6-1" target="SIUPlMjyMP-g4GByRox6-5">
          <mxGeometry relative="1" as="geometry" />
        </mxCell>
        <mxCell id="SIUPlMjyMP-g4GByRox6-27" style="rounded=0;orthogonalLoop=1;jettySize=auto;html=1;exitX=0.5;exitY=0.5;exitDx=0;exitDy=0;exitPerimeter=0;" edge="1" parent="1" source="SIUPlMjyMP-g4GByRox6-1" target="SIUPlMjyMP-g4GByRox6-7">
          <mxGeometry relative="1" as="geometry" />
        </mxCell>
        <mxCell id="SIUPlMjyMP-g4GByRox6-28" style="rounded=0;orthogonalLoop=1;jettySize=auto;html=1;exitX=0.5;exitY=0.5;exitDx=0;exitDy=0;exitPerimeter=0;dashed=1;endArrow=classic;endFill=1;" edge="1" parent="1" source="SIUPlMjyMP-g4GByRox6-1" target="SIUPlMjyMP-g4GByRox6-8">
          <mxGeometry relative="1" as="geometry" />
        </mxCell>
        <mxCell id="SIUPlMjyMP-g4GByRox6-37" style="rounded=0;orthogonalLoop=1;jettySize=auto;html=1;exitX=0.5;exitY=0.5;exitDx=0;exitDy=0;exitPerimeter=0;entryX=0;entryY=1;entryDx=0;entryDy=0;" edge="1" parent="1" source="SIUPlMjyMP-g4GByRox6-1" target="SIUPlMjyMP-g4GByRox6-35">
          <mxGeometry relative="1" as="geometry">
            <mxPoint x="370" y="-80" as="targetPoint" />
          </mxGeometry>
        </mxCell>
        <mxCell id="SIUPlMjyMP-g4GByRox6-1" value="Instrutor&lt;div&gt;&lt;br&gt;&lt;/div&gt;" style="shape=umlActor;verticalLabelPosition=bottom;verticalAlign=top;html=1;outlineConnect=0;" vertex="1" parent="1">
          <mxGeometry x="100" y="40" width="30" height="60" as="geometry" />
        </mxCell>
        <mxCell id="SIUPlMjyMP-g4GByRox6-36" style="rounded=0;orthogonalLoop=1;jettySize=auto;html=1;exitX=0.5;exitY=0.5;exitDx=0;exitDy=0;exitPerimeter=0;entryX=0;entryY=0.5;entryDx=0;entryDy=0;" edge="1" parent="1" source="SIUPlMjyMP-g4GByRox6-3" target="SIUPlMjyMP-g4GByRox6-35">
          <mxGeometry relative="1" as="geometry" />
        </mxCell>
        <mxCell id="SIUPlMjyMP-g4GByRox6-3" value="&lt;div&gt;Aluno&lt;/div&gt;" style="shape=umlActor;verticalLabelPosition=bottom;verticalAlign=top;html=1;outlineConnect=0;" vertex="1" parent="1">
          <mxGeometry x="100" y="-70" width="30" height="60" as="geometry" />
        </mxCell>
        <mxCell id="SIUPlMjyMP-g4GByRox6-5" value="Cadastrar Aluno" style="ellipse;whiteSpace=wrap;html=1;" vertex="1" parent="1">
          <mxGeometry x="240" y="110" width="140" height="70" as="geometry" />
        </mxCell>
        <mxCell id="SIUPlMjyMP-g4GByRox6-6" value="Cadastrar Curso&lt;div&gt;&lt;br&gt;&lt;/div&gt;" style="ellipse;whiteSpace=wrap;html=1;" vertex="1" parent="1">
          <mxGeometry x="190" y="460" width="140" height="70" as="geometry" />
        </mxCell>
        <mxCell id="SIUPlMjyMP-g4GByRox6-7" value="Vincular Aluno a curso" style="ellipse;whiteSpace=wrap;html=1;" vertex="1" parent="1">
          <mxGeometry x="240" y="10" width="140" height="70" as="geometry" />
        </mxCell>
        <mxCell id="SIUPlMjyMP-g4GByRox6-22" style="rounded=0;orthogonalLoop=1;jettySize=auto;html=1;" edge="1" parent="1" source="SIUPlMjyMP-g4GByRox6-8" target="SIUPlMjyMP-g4GByRox6-21">
          <mxGeometry relative="1" as="geometry">
            <mxPoint x="40" y="370" as="sourcePoint" />
          </mxGeometry>
        </mxCell>
        <mxCell id="SIUPlMjyMP-g4GByRox6-33" style="rounded=0;orthogonalLoop=1;jettySize=auto;html=1;exitX=0.5;exitY=0.5;exitDx=0;exitDy=0;exitPerimeter=0;entryX=0;entryY=0.5;entryDx=0;entryDy=0;" edge="1" parent="1" source="SIUPlMjyMP-g4GByRox6-8" target="SIUPlMjyMP-g4GByRox6-20">
          <mxGeometry relative="1" as="geometry" />
        </mxCell>
        <mxCell id="SIUPlMjyMP-g4GByRox6-34" style="rounded=0;orthogonalLoop=1;jettySize=auto;html=1;exitX=0.5;exitY=0.5;exitDx=0;exitDy=0;exitPerimeter=0;" edge="1" parent="1" source="SIUPlMjyMP-g4GByRox6-8" target="SIUPlMjyMP-g4GByRox6-6">
          <mxGeometry relative="1" as="geometry" />
        </mxCell>
        <mxCell id="SIUPlMjyMP-g4GByRox6-8" value="&lt;div&gt;Adminitrador&lt;/div&gt;" style="shape=umlActor;verticalLabelPosition=bottom;verticalAlign=top;html=1;outlineConnect=0;" vertex="1" parent="1">
          <mxGeometry x="-10" y="240" width="30" height="60" as="geometry" />
        </mxCell>
        <mxCell id="SIUPlMjyMP-g4GByRox6-19" value="Use Case" style="shape=umlFrame;whiteSpace=wrap;html=1;pointerEvents=0;" vertex="1" parent="1">
          <mxGeometry x="160" y="-280" width="990" height="1000" as="geometry" />
        </mxCell>
        <mxCell id="SIUPlMjyMP-g4GByRox6-20" value="Cadastrar Instrutor" style="ellipse;whiteSpace=wrap;html=1;" vertex="1" parent="1">
          <mxGeometry x="220" y="350" width="140" height="70" as="geometry" />
        </mxCell>
        <mxCell id="SIUPlMjyMP-g4GByRox6-21" value="Cadastrar Administrador" style="ellipse;whiteSpace=wrap;html=1;" vertex="1" parent="1">
          <mxGeometry x="170" y="585" width="140" height="70" as="geometry" />
        </mxCell>
        <mxCell id="SIUPlMjyMP-g4GByRox6-30" value="Herda todas as funcionalidades" style="text;html=1;align=center;verticalAlign=middle;resizable=0;points=[];autosize=1;strokeColor=none;fillColor=none;rotation=-75;" vertex="1" parent="1">
          <mxGeometry x="-50" y="80" width="190" height="30" as="geometry" />
        </mxCell>
        <mxCell id="SIUPlMjyMP-g4GByRox6-31" style="rounded=0;orthogonalLoop=1;jettySize=auto;html=1;exitX=0;exitY=1;exitDx=0;exitDy=0;exitPerimeter=0;entryX=0.5;entryY=0;entryDx=0;entryDy=0;entryPerimeter=0;dashed=1;" edge="1" parent="1" source="SIUPlMjyMP-g4GByRox6-3" target="SIUPlMjyMP-g4GByRox6-8">
          <mxGeometry relative="1" as="geometry" />
        </mxCell>
        <mxCell id="SIUPlMjyMP-g4GByRox6-35" value="Acom&lt;span style=&quot;background-color: initial;&quot;&gt;panhar progresso do curso&lt;/span&gt;" style="ellipse;whiteSpace=wrap;html=1;" vertex="1" parent="1">
          <mxGeometry x="240" y="-100" width="140" height="70" as="geometry" />
        </mxCell>
      </root>
    </mxGraphModel>
  </diagram>
</mxfile>
